<?xml version="1.0" standalone="no"?>
<!DOCTYPE svg PUBLIC "-//W3C//DTD SVG 20010904//EN"
 "http://www.w3.org/TR/2001/REC-SVG-20010904/DTD/svg10.dtd">
<svg version="1.0" xmlns="http://www.w3.org/2000/svg"
 width="16.000000pt" height="16.000000pt" viewBox="0 0 16.000000 16.000000"
 preserveAspectRatio="xMidYMid meet">
<metadata>
Created by potrace 1.11, written by Peter Selinger 2001-2013
</metadata>
<g transform="translate(0.000000,16.000000) scale(0.001533,-0.001533)"
fill="#000000" stroke="none">
<path d="M3115 9704 c-110 -64 -218 -126 -240 -138 -22 -13 -56 -32 -75 -43
-19 -11 -177 -102 -350 -203 -173 -100 -335 -194 -360 -208 -25 -14 -144 -82
-265 -152 -121 -70 -236 -137 -255 -148 -74 -41 -496 -285 -520 -300 -14 -9
-50 -29 -80 -45 -30 -16 -62 -36 -71 -43 -8 -8 -18 -14 -22 -14 -3 0 -70 -38
-149 -84 -137 -80 -242 -140 -338 -194 -25 -14 -57 -33 -72 -43 -14 -11 -28
-19 -31 -19 -3 0 -41 -21 -84 -46 -43 -26 -98 -58 -123 -72 -86 -48 -82 -40
-50 -96 15 -28 52 -91 80 -141 29 -49 69 -117 88 -150 19 -33 44 -76 55 -95
11 -19 30 -53 42 -75 29 -53 271 -470 302 -520 7 -11 15 -26 19 -33 4 -8 45
-80 92 -160 318 -549 376 -652 388 -687 3 -11 6 -727 6 -1590 l1 -1571 60 -34
c168 -96 234 -134 370 -214 82 -47 167 -97 190 -110 46 -25 71 -40 192 -110
44 -26 87 -51 95 -56 8 -5 130 -75 270 -155 140 -80 266 -152 280 -160 14 -8
135 -79 270 -157 135 -78 313 -181 397 -229 83 -49 167 -97 185 -108 50 -29
229 -131 263 -151 17 -9 145 -84 285 -165 140 -81 280 -162 310 -178 30 -17
79 -45 108 -64 29 -18 54 -33 57 -33 3 0 261 -147 315 -180 8 -5 52 -30 98
-56 45 -26 82 -53 82 -60 0 -15 26 -9 50 12 8 6 31 21 50 32 19 11 116 67 215
124 99 57 288 167 420 243 132 76 253 146 270 156 16 10 41 24 55 32 53 29
437 251 472 274 21 12 39 23 42 23 2 0 80 44 172 98 93 55 309 179 479 277
171 98 370 213 444 256 73 44 135 79 136 79 2 0 39 21 82 46 43 26 94 56 113
67 50 28 314 180 319 183 1 2 4 571 5 1266 l1 1262 150 88 c83 48 156 91 164
95 8 3 63 35 122 69 60 35 128 74 151 87 24 14 99 57 168 98 69 40 152 88 185
106 33 19 67 38 75 43 25 17 614 356 676 390 33 18 66 39 75 46 8 8 18 14 21
14 12 0 388 222 388 228 -1 35 -21 32 -331 -58 -413 -120 -591 -171 -609 -176
-8 -2 -141 -40 -295 -84 -154 -45 -287 -83 -295 -86 -8 -2 -37 -10 -65 -18
-406 -119 -574 -166 -594 -166 -16 0 -135 62 -211 110 -23 14 -170 99 -220
127 -25 14 -70 40 -100 58 -100 60 -555 321 -570 328 -8 4 -28 15 -45 26 -29
17 -444 258 -515 298 -19 11 -89 52 -155 90 -66 39 -212 123 -325 188 -113 65
-248 143 -300 173 -52 30 -169 98 -260 150 -91 52 -205 118 -255 147 -49 29
-106 62 -125 73 -19 11 -138 79 -265 152 -126 73 -244 141 -262 151 -17 10
-49 28 -70 41 -21 13 -55 32 -76 43 -53 27 -78 55 -116 122 -17 32 -43 78 -57
103 -15 25 -60 104 -101 175 -42 72 -83 141 -91 155 -9 14 -17 27 -17 30 -1 5
-38 70 -150 260 -34 58 -73 125 -87 150 -14 25 -35 61 -46 80 -12 19 -27 46
-35 60 -18 33 -34 61 -164 285 -60 105 -148 258 -196 340 -47 83 -92 158 -99
167 -12 16 -31 7 -213 -98z"/>
</g>
</svg>
